<mxfile host="65bd71144e">
    <diagram id="kmfTmN6jE7DFMna66N-X" name="Page-1">
        <mxGraphModel dx="1641" dy="622" grid="1" gridSize="10" guides="1" tooltips="1" connect="1" arrows="1" fold="1" page="1" pageScale="1" pageWidth="827" pageHeight="1169" math="0" shadow="0">
            <root>
                <mxCell id="0"/>
                <mxCell id="1" parent="0"/>
                <mxCell id="3" value="&lt;font style=&quot;font-size: 28px&quot;&gt;APP&lt;/font&gt;" style="rounded=1;whiteSpace=wrap;html=1;" vertex="1" parent="1">
                    <mxGeometry x="-30" y="20" width="760" height="80" as="geometry"/>
                </mxCell>
                <mxCell id="4" value="" style="rounded=1;whiteSpace=wrap;html=1;fontSize=28;" vertex="1" parent="1">
                    <mxGeometry x="40" y="120" width="600" height="330" as="geometry"/>
                </mxCell>
                <mxCell id="5" value="search&amp;nbsp;" style="rounded=1;whiteSpace=wrap;html=1;fontSize=18;" vertex="1" parent="1">
                    <mxGeometry x="70" y="130" width="370" height="40" as="geometry"/>
                </mxCell>
                <mxCell id="6" value="" style="rounded=1;whiteSpace=wrap;html=1;fontSize=18;" vertex="1" parent="1">
                    <mxGeometry x="50" y="180" width="580" height="240" as="geometry"/>
                </mxCell>
                <mxCell id="7" value="submit" style="rounded=1;whiteSpace=wrap;html=1;fontSize=18;" vertex="1" parent="1">
                    <mxGeometry x="450" y="130" width="160" height="40" as="geometry"/>
                </mxCell>
                <mxCell id="8" value="&lt;span style=&quot;text-align: left; font-size: 14px;&quot;&gt;&lt;font style=&quot;font-size: 14px;&quot;&gt;&quot;temperature&quot;:&amp;nbsp;&quot;18 °C&quot;,&lt;/font&gt;&lt;/span&gt;" style="rounded=1;whiteSpace=wrap;html=1;fontSize=14;fontColor=#000000;labelBackgroundColor=#FFFFFF;" vertex="1" parent="1">
                    <mxGeometry x="70" y="195" width="130" height="45" as="geometry"/>
                </mxCell>
                <mxCell id="9" value="&lt;span style=&quot;font-size: 14px; text-align: left;&quot;&gt;&quot;wind&quot;:&amp;nbsp;&quot;7 km/h&quot;,&lt;/span&gt;" style="rounded=1;whiteSpace=wrap;html=1;fontSize=14;fontColor=#000000;labelBackgroundColor=#FFFFFF;" vertex="1" parent="1">
                    <mxGeometry x="70" y="340" width="130" height="40" as="geometry"/>
                </mxCell>
                <mxCell id="10" value="&lt;span style=&quot;font-size: 14px; text-align: left;&quot;&gt;&quot;description&quot;:&amp;nbsp;&quot;Partly cloudy&quot;,&lt;/span&gt;" style="rounded=1;whiteSpace=wrap;html=1;fontSize=14;fontColor=#000000;labelBackgroundColor=#FFFFFF;" vertex="1" parent="1">
                    <mxGeometry x="70" y="270" width="130" height="45" as="geometry"/>
                </mxCell>
                <mxCell id="11" value="" style="rounded=1;whiteSpace=wrap;html=1;fontSize=14;fontColor=#000000;labelBackgroundColor=#FFFFFF;" vertex="1" parent="1">
                    <mxGeometry x="280" y="262.5" width="310" height="117.5" as="geometry"/>
                </mxCell>
                <mxCell id="12" value="&lt;font style=&quot;font-size: 24px&quot;&gt;Name of city searched for&lt;/font&gt;" style="rounded=1;whiteSpace=wrap;html=1;labelBackgroundColor=#FFFFFF;fontSize=14;fontColor=#000000;" vertex="1" parent="1">
                    <mxGeometry x="280" y="195" width="310" height="45" as="geometry"/>
                </mxCell>
                <mxCell id="13" value="&lt;font style=&quot;font-size: 19px&quot;&gt;day2&lt;br&gt;temp, wind :)&amp;nbsp;&lt;/font&gt;" style="rounded=1;whiteSpace=wrap;html=1;labelBackgroundColor=#FFFFFF;fontSize=24;fontColor=#000000;" vertex="1" parent="1">
                    <mxGeometry x="294" y="276.25" width="126" height="90" as="geometry"/>
                </mxCell>
                <mxCell id="14" value="&lt;font style=&quot;font-size: 19px&quot;&gt;day3&lt;br&gt;temp, wind :(&lt;/font&gt;" style="rounded=1;whiteSpace=wrap;html=1;labelBackgroundColor=#FFFFFF;fontSize=24;fontColor=#000000;" vertex="1" parent="1">
                    <mxGeometry x="450" y="276.25" width="126" height="90" as="geometry"/>
                </mxCell>
                <mxCell id="15" value="" style="rounded=0;whiteSpace=wrap;html=1;labelBackgroundColor=#FFFFFF;fontSize=19;fontColor=#000000;" vertex="1" parent="1">
                    <mxGeometry x="100" y="560" width="540" height="335" as="geometry"/>
                </mxCell>
                <mxCell id="16" value="&lt;span style=&quot;color: rgb(29 , 28 , 29) ; font-family: , &amp;#34;applelogo&amp;#34; , sans-serif ; font-size: 15px ; text-align: left ; background-color: rgb(248 , 248 , 248)&quot;&gt;&quot;temperature&quot;:&amp;nbsp;&quot;18 °C&quot;,&lt;/span&gt;&lt;br style=&quot;box-sizing: inherit ; color: rgb(29 , 28 , 29) ; font-family: , &amp;#34;applelogo&amp;#34; , sans-serif ; font-size: 15px ; text-align: left ; background-color: rgb(248 , 248 , 248)&quot;&gt;&lt;span style=&quot;color: rgb(29 , 28 , 29) ; font-family: , &amp;#34;applelogo&amp;#34; , sans-serif ; font-size: 15px ; text-align: left ; background-color: rgb(248 , 248 , 248)&quot;&gt;&quot;wind&quot;:&amp;nbsp;&quot;7 km/h&quot;,&lt;/span&gt;&lt;br style=&quot;box-sizing: inherit ; color: rgb(29 , 28 , 29) ; font-family: , &amp;#34;applelogo&amp;#34; , sans-serif ; font-size: 15px ; text-align: left ; background-color: rgb(248 , 248 , 248)&quot;&gt;&lt;span style=&quot;color: rgb(29 , 28 , 29) ; font-family: , &amp;#34;applelogo&amp;#34; , sans-serif ; font-size: 15px ; text-align: left ; background-color: rgb(248 , 248 , 248)&quot;&gt;&quot;description&quot;:&amp;nbsp;&quot;Partly cloudy&quot;,&lt;/span&gt;" style="rounded=0;whiteSpace=wrap;html=1;labelBackgroundColor=#FFFFFF;fontSize=19;fontColor=#000000;" vertex="1" parent="1">
                    <mxGeometry x="120" y="600" width="120" height="60" as="geometry"/>
                </mxCell>
            </root>
        </mxGraphModel>
    </diagram>
</mxfile>